<svg version="1.1" id="Calque_1" xmlns="http://www.w3.org/2000/svg" xmlns:xlink="http://www.w3.org/1999/xlink" x="0px" y="0px" viewBox="0 0 92.1 56" style="enable-background:new 0 0 92.1 56;" xml:space="preserve">
<path style="fill:#4E6B7C;" d="M45.2,46.2c-0.8,0-1.4-0.2-1.7-0.4l0.3-0.9c0.2,0.2,0.6,0.3,1.2,0.3c0.7,0,1.1-0.4,1.1-1.1
	c0-0.5-0.3-0.9-1.1-1.2c-1.1-0.5-1.5-1.3-1.5-2c0-1.1,0.8-2.1,2.1-2.1c0.7,0,1.2,0.2,1.5,0.4L46.8,40c-0.2-0.2-0.6-0.3-1.1-0.3
	c-0.6,0-1,0.4-1,1.1c0,0.6,0.5,0.9,1.1,1.2c1.4,0.6,1.6,1.4,1.6,2.1C47.4,45.3,46.5,46.2,45.2,46.2"></path>
<path style="fill:#4E6B7C;" d="M49.5,43.7c0.1,1.1,0.6,1.6,1.5,1.6c0.6,0,1.1-0.2,1.4-0.3l0.3,0.8c-0.4,0.2-1,0.4-1.8,0.4c-1.6,0-2.6-1-2.6-3
	c0-1.9,0.9-2.9,2.4-2.9s2.3,1,2.2,2.9L49.5,43.7z M50.7,41.1c-0.7,0-1.2,0.6-1.2,2l2.3-0.4C51.8,41.6,51.4,41.1,50.7,41.1"></path>
<path style="fill:#4E6B7C;" d="M56.5,41.3c-0.4-0.1-0.9-0.1-1.2,0v4.8h-1.2v-5.4c0.6-0.3,1.3-0.4,2.7-0.4L56.5,41.3z"></path>
<path style="fill:#4E6B7C;" d="M60.1,46.1h-1.2l-1.8-5.7h1.3l1,3.7c0.1,0.4,0.1,0.8,0.1,0.8l0,0c0,0,0-0.4,0.1-0.8l1-3.7h1.2L60.1,46.1z"></path>
<path style="fill:#4E6B7C;" d="M63.4,39.4c-0.4,0-0.7-0.3-0.7-0.6c0-0.4,0.3-0.6,0.7-0.6s0.7,0.3,0.7,0.6C64.1,39.2,63.8,39.4,63.4,39.4
	 M62.8,40.4H64v5.7h-1.2V40.4z"></path>
<path style="fill:#4E6B7C;" d="M67.3,46.2c-1.3,0-2.2-1.1-2.2-3s1-2.9,2.2-2.9c0.7,0,1.1,0.2,1.3,0.4l-0.3,0.7c-0.2-0.1-0.4-0.2-0.7-0.2
	c-0.8,0-1.2,0.8-1.2,2c0,1.3,0.4,2.1,1.2,2.1c0.3,0,0.6-0.1,0.7-0.3l0.3,0.8C68.4,46,68,46.2,67.3,46.2"></path>
<path style="fill:#4E6B7C;" d="M70.6,43.7c0.1,1.1,0.6,1.6,1.5,1.6c0.6,0,1.1-0.2,1.4-0.3l0.3,0.8c-0.4,0.2-1,0.4-1.8,0.4c-1.6,0-2.6-1-2.6-3
	c0-1.9,0.9-2.9,2.4-2.9s2.3,1,2.2,2.9L70.6,43.7z M71.7,41.1c-0.7,0-1.2,0.6-1.2,2l2.3-0.4C72.8,41.6,72.4,41.1,71.7,41.1"></path>
<path style="fill:#4E6B7C;" d="M78.4,32.8C72.4,32.4,65,32,56.9,32c-12.4,0-26.5,0.9-39.3,3.5c-2.1-2.7-4.8-4.8-8.8-6.5l-0.1,0.1
	c3.5,3.8,5.8,7.2,7.4,11.9c17.9-6.7,40.5-7.9,57.5-7.9c1.6,0,3.2,0,4.7,0L78.4,32.8"></path>
<path style="fill:#82E600;" d="M26.9,10.1c-1.2,4.6-2.9,9.3-5.1,13.9l0,0c-0.6-3.8-0.9-9.2-0.9-13.9h-6.2c0.2,7.4,1.5,14,2.9,19.8h6
	c3.4-6.1,6.6-12.7,9-19.8H26.9z M80.3,20.2c0-3.8-2.5-5.4-6.6-5.4c-5,0-8.1,2.3-8.1,10.1c0,3.8,2.5,5.4,6.6,5.4
	C77.2,30.3,80.3,28.1,80.3,20.2 M38.6,14.9c-3.8,0-5.8,0.7-7.4,2.5c-1.6,1.7-2.4,4.6-2.4,7.7c0,2.7,0.7,4.9,4,4.9
	c1.5,0,2.9-0.6,4.1-1.3H37l-0.1,1.1H42L43.8,15C42.3,15,40.5,14.9,38.6,14.9 M59.8,26.4c1.1,0,2.5-0.2,3.7-0.6l-0.7,3.6
	c-1.4,0.3-3.3,0.5-5,0.5c-5.4,0-6.9-2.4-6.9-5.5c0-7.9,3.4-9.7,8.1-9.7c3.7,0,6,1.8,6,5.2c0,1.5-0.3,2.8-0.5,3.7h-8.2
	C56.3,25.5,56.9,26.4,59.8,26.4 M48.8,29.9h-5.4l2.4-19.8h5.4L48.8,29.9z M74.5,22.7c-0.4,3.8-1,4.5-2,4.5s-1.4-0.7-1.4-2.3
	c0-0.7,0.1-1.6,0.2-2.6c0.4-3.8,1-4.5,2.1-4.5c1,0,1.4,0.7,1.4,2.3C74.7,20.8,74.6,21.8,74.5,22.7 M37,25.9
	c-0.3,0.3-0.9,0.5-1.5,0.5c-1.1,0-1.3-0.9-1.3-2c0-1.3,0.4-3.6,0.7-4.5c0.6-1.4,1.4-1.8,2.7-1.8c0,0,0.1,0,0.3,0L37,25.9z
	 M59.7,20.7c0.1-0.5,0.2-0.8,0.2-1.4c0-1-0.7-1.5-1.4-1.5c-1.1,0-1.7,0.7-2,2.9H59.7"></path>
<polyline style="fill:none" points="0,56 92.1,56 92.1,0 0,0 "></polyline>
</svg>