<svg id="Слой_1" data-name="Слой 1" xmlns="http://www.w3.org/2000/svg" viewBox="0 0 453.66 327.05"><defs><style>.cls-1{fill:#231f20;}.cls-2{fill:#bb965a;}</style></defs><title>logo2</title><path class="cls-1" d="M197.15,229.72l.11,0-.11,0Z" transform="translate(-56.64 -119.94)"/><path class="cls-2" d="M360.09,289.17V266.55c0-20.15-7.1-27.2-19.9-33.13a14.09,14.09,0,0,0-2.3-.86l-7.15-2.66-1.64-.21,8.79-3.32a14.09,14.09,0,0,0,2.3-.86c12.8-5.93,19.9-13,19.9-33.13V169.76c.05,0,0-13.45,7.4-16.66,0,0,.15-.27-.55-.27a68.72,68.72,0,0,0-9.88.61,14.48,14.48,0,0,0-7.79,3.59c-5,4.33-5.5,10.09-5.5,13.71v30.79s-.11,7.54-4.07,10.51c0,0,.55-3,.49-3V178.53c.06.06.19-14.74.19-14.74-14.86-5.58-33.71-9-55.35-9-2.33,0-4.62.07-6.91.14v7.5c2.27-.12,4.57-.22,6.91-.22a133.68,133.68,0,0,1,30.87,3.52l1.56.35c9.78,2.37,13.28,9.32,13.28,18.64v20.63c0,12.51-9.27,19.78-19.12,19.78H244.1c-4.13,0-7.68-2.75-7.68-7.85V180.77a15,15,0,0,1,8.23-11.93c.47-.18,1-.33,1.49-.5V158.6A123.8,123.8,0,0,0,227,164.08v60.68a7.46,7.46,0,0,1-3.8-6.32V168.77a14.8,14.8,0,0,0-5.5-11.62,15.06,15.06,0,0,0-7.79-3.58A68.87,68.87,0,0,0,200,153a21.38,21.38,0,0,0-2.85.37l.43.06c9.21,3.28,9.22,16.49,9.27,16.5v43a18.6,18.6,0,0,1-9.58,16.79c.53.19,9.58,4.93,9.58,15.65v44c-.05,0-.06,13.23-9.27,16.51l-.43.06a19.86,19.86,0,0,0,2.85.37,68.87,68.87,0,0,0,9.88-.62,15.42,15.42,0,0,0,7.79-3.58c4.52-3.65,5.5-9.74,5.5-12.84V239.9a8,8,0,0,1,3.8-6.33v61.29a126.36,126.36,0,0,0,19.18,5.49v-9.76c-.51-.16-1-.32-1.49-.5a14.71,14.71,0,0,1-8.23-11.93V241.62a7.37,7.37,0,0,1,7.68-7.83h67.52c10.08,0,19.12,8.18,19.12,18.15v22.27c0,9.71-5.63,17.5-13.74,18.75l-1.1.24A133.7,133.7,0,0,1,285,296.71c-2.34,0-4.63-.1-6.91-.22V304c2.29.09,4.58.16,6.91.16,21.64,0,40.49-3.41,55.35-9,0,0-.13-14.8-.19-14.75V249.86c.06.07-.36-5.68-.36-5.68,3.35,1.68,3.94,13.22,3.94,13.22v32.88a14.7,14.7,0,0,0,5.5,11.62,17.58,17.58,0,0,0,7.79,3.59,42.62,42.62,0,0,0,9.16.64c.7,0,2.49-.31,2.49-.31-9.21-3.28-8.57-16.63-8.62-16.65" transform="translate(-56.64 -119.94)"/><path class="cls-2" d="M300,307.21q-3.87.3-7.84.42c0,6.48.08,11.19.24,12.39,1.12,9.08,9.83,10.88,9.83,10.88a13.12,13.12,0,0,1-2.16-5.88c0-.69-.07-7.89-.07-17.81" transform="translate(-56.64 -119.94)"/><path class="cls-2" d="M317.31,321.5V305.1q-6.56,1.17-13.51,1.82c0,9.08,0,15.69,0,15.69s.66,7.54,4.57,11.62a11.22,11.22,0,0,0,6.46,3.59,47.61,47.61,0,0,0,8.21.61,12.73,12.73,0,0,0,2.36-.37L325,338c-7.65-3.28-7.65-16.49-7.69-16.51" transform="translate(-56.64 -119.94)"/><path class="cls-2" d="M266.87,221.49h7.61V166.28h0V151.42c0-10.11,0-16.67,0-17.63,0-5.19-9.84-6.31-9.84-6.31a13,13,0,0,1,2.17,5.88c.08,1.2.08,44,.07,88.13" transform="translate(-56.64 -119.94)"/><path class="cls-2" d="M249.79,136.88V221.5h13.45L263.1,136s-.22-8.43-4.33-11.89c-2-1.73-4-3.19-6.47-3.59a47.61,47.61,0,0,0-8.2-.62,14.49,14.49,0,0,0-2.36.37l.36.07c7.64,3.27,7.65,16.48,7.69,16.5" transform="translate(-56.64 -119.94)"/><path class="cls-2" d="M317.31,153.83v-17s-.79-13.23,6.85-16.5l.35-.07a14.54,14.54,0,0,0-2.35-.37,47.71,47.71,0,0,0-8.21.62c-2.48.4-3.73,1.61-5.62,3.59-3.91,4.08-4.57,11.62-4.57,11.62s0,6.89.05,16.25c4.62.43,9.13,1,13.5,1.81" transform="translate(-56.64 -119.94)"/><path class="cls-2" d="M300,151.72c0-10.21,0-17.66.07-18.36a13.12,13.12,0,0,1,2.16-5.88s-8.71,1.8-9.83,10.88c-.16,1.24-.23,6.17-.24,12.93q4,.15,7.84.43" transform="translate(-56.64 -119.94)"/><path class="cls-2" d="M317.25,264.23c0-24.57-28.34-26.42-28.34-26.42a21.55,21.55,0,0,1,3.49,11.09c0,8.44-.17,27.61-.23,44,2.64-.15,5.26-.36,7.83-.66,0-13.14,0-25.15.05-35.49,0-3.67-.37-10.41-1.45-11.15,1.38.37,5,6.58,5.16,12.82.09,3.7.09,17.77.06,33.42A106.37,106.37,0,0,0,315,289.67c.1,0,1.16-.26,1.42-.3s.59-.13.88-.2V264.76a1.76,1.76,0,0,1-.06-.53" transform="translate(-56.64 -119.94)"/><path class="cls-2" d="M288.91,221s28.34-1.86,28.34-26.42a1.76,1.76,0,0,1,.06-.53V169.82l-.7-.19-1.51-.34a109.36,109.36,0,0,0-11.27-2.17c0,15.6,0,29.6-.07,33.29-.15,6.24-3.78,12.45-5.16,12.82,1.08-.74,1.45-7.48,1.45-11.16,0-10.29,0-22.26-.05-35.34-2.57-.3-5.19-.52-7.83-.66.07,16.33.23,35.41.23,43.82a21.56,21.56,0,0,1-3.49,11.1" transform="translate(-56.64 -119.94)"/><path class="cls-2" d="M249.79,237.44V321.5s0,13.23-7.69,16.5l-.36.06a12.6,12.6,0,0,0,2.36.37,47.5,47.5,0,0,0,8.2-.61c2.49-.4,4.42-1.85,6.47-3.59,4.11-3.46,4.33-11.89,4.33-11.89l.14-84.9Z" transform="translate(-56.64 -119.94)"/><path class="cls-2" d="M274.48,292.65h0V237.44h-7.61c0,43.92,0,86.39-.07,87.58a13,13,0,0,1-2.16,5.88s9.83-1.12,9.83-6.31c0-.95,0-7.4,0-17.36Z" transform="translate(-56.64 -119.94)"/><path class="cls-1" d="M87.73,404.15h-1c-4.1-.12-6.61-2.79-9.46-6.27l-11.1-13.29,9.37-11.1c1.6-1.88,2.41-3,2.41-4a2.47,2.47,0,0,0-1-2.2l.07-.47h9.66L72.15,382.76l7.49,8.53c5.33,6.25,9.27,10.27,13.15,12l-.3.53a27.59,27.59,0,0,1-4.76.37m-31-.44-.1-.47A5.11,5.11,0,0,0,59,398.36V372.17a5.11,5.11,0,0,0-2.32-4.88l.1-.47H67.29l.1.47a5.12,5.12,0,0,0-2.31,4.88v26.19a5.12,5.12,0,0,0,2.31,4.88l-.1.47Z" transform="translate(-56.64 -119.94)"/><path class="cls-1" d="M101.83,405.08a7.16,7.16,0,0,1-2.69-.56c.06-.11.22-.48.25-.55,4.65-.05,7.57-5.39,7.69-5.62l4.18-7.88-.46-.31a9.82,9.82,0,0,1-3.44-3.75L98.08,371a7.86,7.86,0,0,0-4.16-3.65l.28-.41h9.37l10.3,18.73,6.47-12.87a7.25,7.25,0,0,0,.81-3.33,2.58,2.58,0,0,0-1.24-2.22l.08-.45h8.68l-14.59,28.81c-4.46,8.47-9.13,9.45-12.25,9.45" transform="translate(-56.64 -119.94)"/><path class="cls-1" d="M133.72,403.71l-.11-.47a5.11,5.11,0,0,0,2.32-4.88V372.17a5.13,5.13,0,0,0-2.21-4.81l.27-.54h24.65a14.33,14.33,0,0,0,2.14-.16h0v6.41h0a9.15,9.15,0,0,0-6.26-2.57H142.05v10.84l1.77-.1c2-.12,4.54-.27,6-.27,9.74,0,15.32,4,15.32,11,0,7.6-6.2,11.79-17.47,11.79Zm13.37-18.65c-1.34,0-3.19.12-4.46.22l-.58,0v13.84l.54.07a41.54,41.54,0,0,0,5.63.39c3,0,10-.76,10-7.8,0-4.55-3.66-6.75-11.17-6.75" transform="translate(-56.64 -119.94)"/><path class="cls-1" d="M200.39,403.71l-.06-.43a3,3,0,0,0,1.58-1.5,2.9,2.9,0,0,0-.29-2.19l-4.5-9.82h-16l-3.73,8.2c-.81,1.79-1.24,3.66,1,5.26l-.11.48H168l-.09-.46c2.73-1.7,3.84-3.81,5-6.38l12.21-27.29a2.55,2.55,0,0,0,.21-1.91,2.23,2.23,0,0,0-1.1-1.2l.06-.44h.78a33.28,33.28,0,0,1,4.57.2c2.39.44,4.28,2.11,5.58,4.95l12.36,26.94c.78,1.68,1.94,4.18,4.77,5.27l.07.32ZM182.73,386h12.74l-6.4-14.25Z" transform="translate(-56.64 -119.94)"/><path class="cls-1" d="M246.69,403.71l-.1-.47a5,5,0,0,0,2.33-4.88V385.69H226.05v12.67a5,5,0,0,0,2.35,4.9l-.07.45H217.51l-.08-.41c2.49-1.16,2.49-3.6,2.49-4.94V372.17a5,5,0,0,0-2.33-4.88l.09-.47H228.4l0,.43a5,5,0,0,0-2.38,4.92v9.12h22.87v-9.12a5,5,0,0,0-2.39-4.93l0-.42h10.83l-.06.38a4.69,4.69,0,0,0-2.28,4.66v26.5c0,2.41,1,4.21,2.8,5l0,.35Z" transform="translate(-56.64 -119.94)"/><path class="cls-1" d="M448.66,403.71l-.1-.47a5,5,0,0,0,2.33-4.88V385.69H428v12.67a5,5,0,0,0,2.34,4.9l-.07.45H419.48l-.08-.41c2.49-1.16,2.49-3.6,2.49-4.94V372.17a5,5,0,0,0-2.34-4.88l.09-.47h10.72l0,.43a5,5,0,0,0-2.37,4.92v9.12h22.87v-9.12a5,5,0,0,0-2.4-4.93l0-.42h10.84l-.06.38a4.67,4.67,0,0,0-2.28,4.66v26.5c0,2.41,1,4.21,2.8,5l-.06.35Z" transform="translate(-56.64 -119.94)"/><path class="cls-1" d="M265.58,403.71l.07-.37a5.12,5.12,0,0,0,2.47-5V372.17a5.11,5.11,0,0,0-2.32-4.88l.11-.47h10.54l.11.47a5.11,5.11,0,0,0-2.32,4.88v8.69l.67-.05c2.29-.17,5.15-.37,7.1-.37,9.75,0,15.33,4.09,15.33,11.21,0,7.78-6.2,12.06-17.47,12.06Zm13.7-19.07c-1.13,0-2.76.1-4.47.26l-.57.05v14.1l.54.07a42.73,42.73,0,0,0,5.63.39c6.46,0,10-2.81,10-7.9,0-4.62-3.75-7-11.16-7" transform="translate(-56.64 -119.94)"/><path class="cls-1" d="M304.88,385.58l3.54-3.95a1.8,1.8,0,0,1,1.44-.54h15.75l-3.53,4a1.83,1.83,0,0,1-1.45.54Z" transform="translate(-56.64 -119.94)"/><path class="cls-1" d="M332.47,403.71l-.1-.47a5.12,5.12,0,0,0,2.31-4.88V372.17A5.17,5.17,0,0,0,332,367l-.17-.1,0-.12,17.78-.27c7,0,11.66,3.35,11.66,8.34a7.42,7.42,0,0,1-4.15,6.59l-1.36.76,1.5.39c4.9,1.28,7.93,4.94,7.93,9.55,0,3.46-1.7,11.53-17.46,11.53ZM347,385.06c-1.07,0-3.2,0-5.64.17l-.59,0v13.88l.56.06c2.22.27,5.43.4,6.91.4,3,0,10-.69,10-7.07,0-1.75-.81-7.48-11.28-7.48m-.25-14.41c-1.11,0-4.1.11-5.42.25l-.56.06v10.48l4.88.05a11,11,0,0,0,6.67-1.82,4.94,4.94,0,0,0,2.09-3.94c0-3.18-2.86-5.08-7.66-5.08" transform="translate(-56.64 -119.94)"/><path class="cls-1" d="M401.09,403.71l0-.44a5,5,0,0,0,2.37-4.91V373.92l-21.18,27.74c-1.28,1.69-3.74,2-5.58,2h-4.88l.13-.34a5.06,5.06,0,0,0,2.51-5V372.17a5,5,0,0,0-2.46-5l-.07-.37h11.18l-.07.38a5,5,0,0,0-2.46,5v24.44l20.17-26.45a8.78,8.78,0,0,1,6.33-3.34h4.77l.07.46a5,5,0,0,0-2.34,4.89v26.19a5,5,0,0,0,2.37,4.91l0,.44Z" transform="translate(-56.64 -119.94)"/><path class="cls-1" d="M487.41,404.49c-15.72,0-22.89-10-22.89-19.23S471.69,366,487.41,366s22.88,10,22.88,19.23-7.16,19.23-22.88,19.23m.12-33.94c-7.76,0-16.11,4.34-16.11,13.88,0,9.16,6.53,15.55,15.87,15.55,7.76,0,16.11-4.34,16.11-13.87,0-9.17-6.53-15.56-15.87-15.56" transform="translate(-56.64 -119.94)"/><path class="cls-1" d="M249.23,443.05a3.51,3.51,0,0,0,1.73,3.43h-7.31a3.5,3.5,0,0,0,1.74-3.43V427.39h-4.64c2.53-.93,6.37-2.81,8.48-6.37Z" transform="translate(-56.64 -119.94)"/><path class="cls-1" d="M266.53,422c-6.86,0-10.25,4.53-10.25,8.78,0,4.42,3.43,7.54,8.67,7.54,3,0,6.2-1.28,7.5-2.92-1.37,4.51-5.55,8-11.12,9.46L259.55,447c10-1.13,17.72-7.3,17.72-14.8C277.27,426.43,272.93,422,266.53,422Zm.07,13.71c-4.22,0-6-2.77-6-5.72,0-3.84,2.9-5.18,5.61-5.18,3.93,0,6.71,2.78,6.71,7.34C272.38,434.33,269.21,435.68,266.6,435.68Z" transform="translate(-56.64 -119.94)"/><path class="cls-1" d="M316.09,447c6.87,0,10.25-4.52,10.25-8.77,0-4.42-3.42-7.54-8.67-7.54-3,0-6.21,1.27-7.5,2.91,1.37-4.5,5.55-8,11.13-9.46l1.77-2.16c-10,1.14-17.72,7.3-17.72,14.81C305.35,442.54,309.69,447,316.09,447ZM316,433.28c4.22,0,6,2.78,6,5.72,0,3.84-2.9,5.18-5.61,5.18-3.93,0-6.71-2.78-6.71-7.33C310.24,434.64,313.41,433.28,316,433.28Z" transform="translate(-56.64 -119.94)"/><path class="cls-1" d="M298.29,422.49v4.25a10.57,10.57,0,0,0-6.14-1.44c-1.55,0-3.77.17-4.83.24l-.34,6a16.55,16.55,0,0,1,4-.48c6.79,0,9.61,3.8,9.61,7.33,0,4.36-3.65,8.57-11.87,8.57a28.18,28.18,0,0,1-5.2-.55l-1.81-3.73a16,16,0,0,0,6.79,1.47c5.23,0,7.76-2.64,7.76-5.31s-2.23-5-6.94-5a17.45,17.45,0,0,0-6.37,1.23l.79-12.64Z" transform="translate(-56.64 -119.94)"/><path class="cls-1" d="M185.56,442.35c-4.67,0-7.35-2.66-7.35-5.63,0-3.4,3-5.93,7.4-5.93,4.77,0,7.22,2.78,7.22,5.81C192.83,439.89,189.73,442.35,185.56,442.35Zm.21-.67c2.35,0,4.25-1.42,4.25-4.77,0-2.53-1.4-5.45-4.69-5.45-2.06,0-4.32,1.22-4.32,4.78C181,438.55,182.24,441.68,185.77,441.68Z" transform="translate(-56.64 -119.94)"/><path class="cls-1" d="M208.21,433.9c-.35-1-1.28-2.44-4-2.44s-5.27,1.5-5.27,4.93a5.15,5.15,0,0,0,5.41,5.29,4.49,4.49,0,0,0,4.32-2.48.47.47,0,0,1,.62.06,5.64,5.64,0,0,1-1,2.54,7,7,0,0,0-.72.15,14.88,14.88,0,0,1-3.23.4,11.1,11.1,0,0,1-5.29-1.12,5.07,5.07,0,0,1-2.93-4.59,5.17,5.17,0,0,1,2.61-4.43,11.26,11.26,0,0,1,5.7-1.42,19.48,19.48,0,0,1,3.57.37l.58.1c0,.38.08,1.37.29,2.61A.65.65,0,0,1,208.21,433.9Z" transform="translate(-56.64 -119.94)"/><path class="cls-1" d="M216,437.22v2.46c0,1.77.19,1.8,1.16,1.9l.62.07c.14.12.12.42-.05.48-1.07,0-2,0-2.9,0s-1.84,0-2.63,0a.3.3,0,0,1,0-.48l.29,0c1-.12,1.16-.17,1.16-1.94v-6.22c0-1.77-.19-1.82-1.16-1.91l-.46-.05a.31.31,0,0,1,0-.49c.91,0,1.88.05,2.79.05s1.83,0,2.63-.05c.18.06.19.4,0,.49l-.35.05c-1,.13-1.16.14-1.16,1.91v2c0,.47.06.51,1.12.51H222c1.06,0,1.12,0,1.12-.51v-2c0-1.77-.19-1.82-1.16-1.91l-.45-.05a.31.31,0,0,1,0-.49c.95,0,1.88.05,2.78.05s1.84,0,2.66-.05c.18.06.19.4.05.49l-.37.05c-1,.13-1.16.14-1.16,1.91v6.22c0,1.77.19,1.82,1.16,1.92l.46,0c.14.12.12.42-.05.48-.91,0-1.84,0-2.75,0s-1.87,0-2.78,0a.3.3,0,0,1,0-.48l.45,0c1-.1,1.16-.15,1.16-1.92v-2.46c0-.45-.06-.48-1.12-.48h-4.83C216.06,436.74,216,436.77,216,437.22Z" transform="translate(-56.64 -119.94)"/><path class="cls-1" d="M232.12,440.11a1.13,1.13,0,1,1-1.36,1.11A1.22,1.22,0,0,1,232.12,440.11Z" transform="translate(-56.64 -119.94)"/><path class="cls-1" d="M343.87,441.58l.61.07a.3.3,0,0,1,0,.48c-1.07,0-2,0-2.91,0s-1.83,0-2.62,0a.3.3,0,0,1,0-.48l.28,0c1-.12,1.16-.17,1.16-1.94v-6.22c0-1.77-.19-1.83-1.16-1.93l-.33,0a.31.31,0,0,1,.05-.49c.79,0,1.76.05,2.66.05h3.94c1.33,0,2.53,0,2.79-.05.09.28.21,1.6.34,2.32a.68.68,0,0,1-.67.07c-.32-1-.64-1.37-1.3-1.53a9.4,9.4,0,0,0-1.65-.14H343.6c-.89,0-.89,0-.89,1v7C342.71,441.45,342.89,441.48,343.87,441.58Z" transform="translate(-56.64 -119.94)"/><path class="cls-1" d="M359.61,442.35c-4.67,0-7.35-2.66-7.35-5.63,0-3.4,3.05-5.93,7.39-5.93,4.78,0,7.23,2.78,7.23,5.81C366.88,439.89,363.79,442.35,359.61,442.35Zm.21-.67c2.35,0,4.25-1.42,4.25-4.77,0-2.53-1.4-5.45-4.69-5.45-2.06,0-4.31,1.22-4.31,4.78C355.07,438.55,356.29,441.68,359.82,441.68Z" transform="translate(-56.64 -119.94)"/><path class="cls-1" d="M371,442.49a4.11,4.11,0,0,0-1.31,2.12c-.16.09-.58.06-.65-.07.06-.7.29-2.88.37-3.16a3,3,0,0,0,1.82-.85c.9-.9,1.79-2.84,1.79-7,0-1.89-.08-1.94-1.3-2.06l-.32,0c-.13-.07-.09-.37,0-.42.88,0,1.33.05,2.18.05h6.8c1,0,1.83,0,2.66-.05a.31.31,0,0,1,0,.49l-.37.05c-1,.13-1.16.14-1.16,1.91V440a1.4,1.4,0,0,0,1.51,1.37c.09.28.31,2.46.37,3.16-.08.13-.49.16-.66.07a4,4,0,0,0-1.3-2.12,3.75,3.75,0,0,0-2.1-.4h-6.31A3.82,3.82,0,0,0,371,442.49Zm8.2-9.78c0-.95,0-1-.9-1h-3.09c-1,0-1.11.3-1.11,2.15,0,6-2,7.22-2.44,7.54h6.64c.9,0,.9,0,.9-1Z" transform="translate(-56.64 -119.94)"/></svg>