<svg class="i" width="162" height="47" viewBox="0 0 162 47" fill="none" xmlns="http://www.w3.org/2000/svg">
                            <path d="M10.0683 17.4809C10.0683 18.1175 9.71881 18.4714 8.89238 18.4714H4.74221V2.7467H9.10001C9.78812 2.7467 10.0683 2.94987 10.0683 3.61335V17.4809ZM12.2109 0.951382H0.545654V35.228H4.74221V20.0811H12.1858C13.2019 20.0811 14.1953 19.3969 14.1953 18.4714V2.7467C14.1953 1.59801 13.3157 0.951382 12.2109 0.951382Z" fill="#DDDCE0"></path>
                            <path d="M33.01 0.951382V2.7467H23.4183V35.228H19.5445V0.951382H33.01Z" fill="#DDDCE0"></path>
                            <path d="M46.0947 0.951382L40.7801 20.728V0.951382H36.8834V35.228H40.7801L46.0947 15.4514V35.228H49.9914V0.951382H46.0947Z" fill="#DDDCE0"></path>
                            <path fill-rule="evenodd" clip-rule="evenodd" d="M94.9896 25.2858H91.4618V26.0193H94.9896V25.2858Z" fill="#DDDCE0"></path>
                            <path fill-rule="evenodd" clip-rule="evenodd" d="M92.8164 26.0194V35.5945H93.6349V26.0194H92.8164Z" fill="#DDDCE0"></path>
                            <path fill-rule="evenodd" clip-rule="evenodd" d="M69.2229 35.5945H72.9466V25.2868H69.2229V35.5945ZM70.0414 34.8619V26.0194H72.1281V34.8619H70.0414Z" fill="#DDDCE0"></path>
                            <path fill-rule="evenodd" clip-rule="evenodd" d="M61.9514 35.5967H62.7699V30.4123H65.7442V25.287H61.9514V35.5967ZM62.7699 29.6526V26.0467H64.9256V29.6526H62.7699Z" fill="#DDDCE0"></path>
                            <path fill-rule="evenodd" clip-rule="evenodd" d="M55.1582 26.0465V35.5945H54.3397V25.287H58.0635V35.5945H57.2449V26.0465H55.1582Z" fill="#DDDCE0"></path>
                            <path d="M79.3763 25.965V25.2816H77.1862H76.9726H76.4253V35.5945H76.9726H77.1862H79.3763V34.911H77.1862V30.2206H79.3763V29.5371H77.1862V25.965H79.3763Z" fill="#DDDCE0"></path>
                            <path d="M87.5738 35.5945L84.0263 30.1262V29.9529L87.4276 25.2843L86.5714 25.2792L84.0263 28.7222V25.2816H83.2656V30.3072L83.2643 30.3079L83.2656 30.3102V35.5933H84.0263V31.4993L86.6972 35.592L87.5738 35.5945Z" fill="#DDDCE0"></path>
                            <path fill-rule="evenodd" clip-rule="evenodd" d="M0 46.4545C0 46.7242 0.244309 46.9429 0.54568 46.9429H161.022C161.323 46.9429 161.568 46.7242 161.568 46.4545C161.568 46.1847 161.323 45.9661 161.022 45.9661H0.54568C0.244309 45.9661 0 46.1847 0 46.4545Z" fill="#DDDCE0"></path>
                            <path d="M111.079 18.9349L111.053 18.9131L111.037 35.2146H111.079V18.9349Z" fill="#1D1D1B"></path>
                            <path d="M111.058 35.2283L99.5718 35.2488L99.5751 25.6531L111.058 18.9051V35.2283Z" fill="#ACB5CD"></path>
                            <path d="M117.629 35.2283H111.058V18.9051L117.076 23.9189L117.629 35.2283Z" fill="#DDDCE0"></path>
                            <path d="M128.638 35.2173L115.208 35.2283V7.86795L128.626 0.942833L128.638 35.2173Z" fill="#6683C7"></path>
                            <path d="M141.562 35.2195H128.629L128.626 0.942833L141.494 7.25796L141.562 35.2195Z" fill="#DDDCE0"></path>
                            <path d="M147.026 35.2283H133.608V19.971L147.023 13.0547L147.026 35.2283Z" fill="#313F94"></path>
                            <path d="M159.959 35.2283H147.027L147.023 13.0547L159.891 19.3698L159.959 35.2283Z" fill="#DDDCE0"></path>
                        </svg>