<svg width="128" height="32" viewBox="0 0 128 32" fill="none" xmlns="http://www.w3.org/2000/svg">
<path fill-rule="evenodd" clip-rule="evenodd" d="M49.3884 17.8379L47.2941 11.668L45.2002 17.8379H49.3884ZM55.4745 24.7896H52.5431C51.9287 24.7896 51.7055 24.6221 51.4822 23.952L50.7003 21.7464H43.8603L43.0784 23.952C42.8552 24.6221 42.632 24.7896 42.0176 24.7896H39.0861C38.4722 24.7896 38.4722 24.3431 38.6117 24.0078L44.8095 7.28392C45.0328 6.69844 45.3398 6.41885 45.9541 6.41885H48.6344C49.2488 6.41885 49.5279 6.69844 49.7791 7.28392L55.9494 24.0078C56.0889 24.3431 56.0889 24.7896 55.4745 24.7896Z" fill="#0E6D39"/>
<path fill-rule="evenodd" clip-rule="evenodd" d="M68.6225 12.9801C68.6225 11.5281 67.6733 10.3556 65.4957 10.3556H62.8154V15.5763H65.4957C67.6733 15.5763 68.6225 14.3759 68.6225 12.9801ZM72.8386 12.896C72.8386 16.7771 70.2699 19.3454 65.4957 19.3454H62.8154V23.9801C62.8154 24.6219 62.5084 24.7898 62.0057 24.7898H59.2417C58.7394 24.7898 58.4319 24.6219 58.4319 23.9801V7.22883C58.4319 6.72613 58.5999 6.41859 59.2417 6.41859H65.5237C70.3258 6.41859 72.8386 9.0431 72.8386 12.896Z" fill="#0E6D39"/>
<path fill-rule="evenodd" clip-rule="evenodd" d="M79.4811 6.41875C79.9834 6.41875 80.2908 6.58676 80.2908 7.22898V16.9164L86.2096 7.3685C86.5723 6.80948 86.768 6.41875 87.4658 6.41875H90.0903C90.7325 6.41875 90.9 6.72628 90.9 7.22898V23.9802C90.9 24.622 90.593 24.7899 90.0903 24.7899H87.3262C86.824 24.7899 86.5164 24.622 86.5164 23.9802V14.2645L80.5978 23.8407C80.235 24.3988 80.0396 24.7899 79.3416 24.7899H76.8007C76.1584 24.7899 75.991 24.4825 75.991 23.9802V7.22898C75.991 6.58676 76.2984 6.41875 76.8007 6.41875H79.4811Z" fill="#0E6D39"/>
<path fill-rule="evenodd" clip-rule="evenodd" d="M105.053 12.7006C105.053 10.9137 103.768 9.88115 101.926 9.88115C100.111 9.88115 98.8268 10.9137 98.8268 12.7006V18.5077C98.8268 20.2946 100.111 21.328 101.926 21.328C103.768 21.328 105.053 20.2946 105.053 18.5077V12.7006ZM109.436 18.8989C109.436 23.3103 105.248 25.2083 101.926 25.2083C98.6031 25.2083 94.4712 23.3103 94.4712 18.8989V12.31C94.4712 7.89899 98.6031 6.00003 101.926 6.00003C105.248 6.00003 109.436 7.89899 109.436 12.31V18.8989Z" fill="#0E6D39"/>
<path fill-rule="evenodd" clip-rule="evenodd" d="M128 7.22883V23.9799C128 24.6218 127.693 24.7898 127.19 24.7898H124.426C123.924 24.7898 123.617 24.6218 123.617 23.9799V17.6701H117.391V23.9799C117.391 24.6218 117.111 24.7898 116.581 24.7898H113.817C113.315 24.7898 113.007 24.6218 113.007 23.9799V7.22883C113.007 6.58647 113.315 6.41859 113.817 6.41859H116.581C117.111 6.41859 117.391 6.58647 117.391 7.22883V13.5382H123.617V7.22883C123.617 6.58647 123.924 6.41859 124.426 6.41859H127.19C127.693 6.41859 128 6.58647 128 7.22883Z" fill="#0E6D39"/>
<path fill-rule="evenodd" clip-rule="evenodd" d="M16 0C7.16412 0 0 7.16412 0 16C0 24.8359 7.16412 32 16 32C24.8359 32 32 24.8359 32 16C32 7.16412 24.8359 0 16 0ZM16 30.4202C8.03606 30.4202 1.57982 23.9639 1.57982 16C1.57982 8.03606 8.03606 1.57983 16 1.57983C23.9639 1.57983 30.4202 8.03606 30.4202 16C30.4202 23.9639 23.9639 30.4202 16 30.4202Z" fill="#0E6D39"/>
<path fill-rule="evenodd" clip-rule="evenodd" d="M2.01978 16.2066C2.34883 16.0797 2.67946 16.0144 3.00319 15.9279C3.32008 15.8431 3.64253 15.778 3.96363 15.7097C4.53995 15.5874 5.11814 15.4765 5.70106 15.3875C5.98779 15.3438 6.27391 15.2946 6.5614 15.2589C7.08398 15.194 7.60739 15.1318 8.13207 15.0849C9.2892 14.9817 10.4495 14.9261 11.6108 14.973C12.2864 15.0002 12.9617 15.0447 13.6352 15.1217C14.2647 15.1937 14.8908 15.2843 15.5121 15.4037C15.9434 15.4868 16.3704 15.5937 16.7955 15.7052C17.6188 15.9212 18.4238 16.1954 19.2043 16.5359C19.8552 16.8197 20.4898 17.1389 21.0963 17.5109C21.9637 18.0429 22.7701 18.6523 23.5106 19.3529C24.6735 20.4525 25.6107 21.72 26.3717 23.1231C26.462 23.2896 26.4528 23.3074 26.2622 23.3053C25.6718 23.2986 25.0809 23.3055 24.4916 23.2758C24.022 23.2523 23.5532 23.265 23.0841 23.2589C22.9806 23.2576 22.9176 23.2287 22.8663 23.1329C22.3569 22.1804 21.6246 21.4143 20.8236 20.7064C19.9418 19.9273 18.9612 19.2927 17.9169 18.7585C17.5065 18.5483 17.1076 18.3006 16.6428 18.2134C16.4542 18.0237 16.1798 18.0205 15.9555 17.9013C15.7019 17.7669 15.4182 17.6872 15.1434 17.5956C14.6899 17.4444 14.2324 17.306 13.77 17.1845C13.5367 17.1233 13.3008 17.0712 13.0687 17.006C12.9729 16.979 12.9612 17.0537 12.9339 17.1003C12.7216 17.4635 12.513 17.8289 12.3044 18.1939C11.8803 18.937 11.457 19.6803 11.0326 20.4232C10.5178 21.3251 10.001 22.2262 9.48799 23.1294C9.42023 23.2488 9.34188 23.3103 9.19203 23.3095C8.14633 23.3029 7.10041 23.3063 6.05473 23.305C5.99942 23.305 5.9237 23.3304 5.89586 23.2695C5.87523 23.2242 5.9258 23.1739 5.95229 23.1284C6.66278 21.9093 7.37229 20.6897 8.08202 19.4704C8.64828 18.4978 9.21349 17.5244 9.78342 16.5539C9.8427 16.4528 9.81389 16.4276 9.71619 16.4178C9.26902 16.3734 8.82192 16.3275 8.37483 16.2836C7.68626 16.2161 6.99476 16.1994 6.30408 16.1682C6.1495 16.1611 5.99439 16.16 5.83951 16.1589C4.75546 16.1509 3.67143 16.1616 2.58784 16.1986C2.4674 16.2026 2.34748 16.2235 2.22757 16.236C2.16169 16.2426 2.09467 16.2537 2.01978 16.2066Z" fill="#A3D20C"/>
<path fill-rule="evenodd" clip-rule="evenodd" d="M23.4382 17.6297C23.2812 17.496 23.1249 17.3616 22.9674 17.2287C22.1709 16.5584 21.2862 16.0287 20.3466 15.5855C19.7913 15.3234 19.2227 15.0894 18.635 14.9184C18.3908 14.8472 18.3125 14.6764 18.2137 14.5041C17.5601 13.365 16.9131 12.2222 16.2635 11.0806C16.1722 10.9202 16.155 10.9202 16.056 11.091C15.5257 12.0064 14.9947 12.9215 14.4692 13.8399C14.4086 13.9458 14.3432 13.976 14.2246 13.9603C13.5197 13.8677 12.8107 13.8224 12.1012 13.778C11.3899 13.7332 10.6783 13.7456 9.96804 13.7631C9.18101 13.7822 8.39451 13.837 7.60981 13.9143C7.04228 13.9702 6.47415 14.0186 5.90924 14.0996C5.87855 14.1041 5.8423 14.1145 5.802 14.0623C6.03575 13.9837 6.25975 13.9008 6.48817 13.8328C6.94592 13.6964 7.4036 13.5593 7.86532 13.4389C8.44929 13.2861 9.03806 13.1537 9.63081 13.0372C10.067 12.9515 10.5044 12.875 10.9427 12.8016C11.1617 12.7648 11.3814 12.7281 11.6024 12.7066C11.715 12.6957 11.7735 12.6401 11.8246 12.5512C12.1174 12.0397 12.412 11.5294 12.7072 11.0195C13.5376 9.58522 14.3689 8.1512 15.1993 6.71717C15.4805 6.23218 15.76 5.74644 16.0414 5.26168C16.1561 5.06417 16.1708 5.06447 16.282 5.2556C16.5688 5.74824 16.8547 6.24118 17.1416 6.73383C17.6059 7.53143 18.0713 8.32829 18.5348 9.12643C19.2192 10.3042 19.9006 11.4838 20.5862 12.6608C21.2963 13.8799 22.0105 15.0966 22.7221 16.3148C22.9582 16.7194 23.192 17.1255 23.426 17.5313C23.44 17.5559 23.4482 17.5837 23.4591 17.6099C23.4519 17.6165 23.4451 17.6231 23.4382 17.6297Z" fill="#0E6D39"/>
</svg>
