<svg id="Layer_1" data-name="Layer 1" xmlns="http://www.w3.org/2000/svg" viewBox="0 0 257.81 217.9"><defs><style>.cls-1{fill:#692426;}</style></defs><title>icon-plan</title><g id="_327IQV" data-name="327IQV"><path class="cls-1" d="M257.81,207.22a17,17,0,0,1-2.52,5.76A12.35,12.35,0,0,1,245,217.87c-13.55,0-27.1,0-40.65,0-3.25,0-4.87-1.56-4.77-4.82a35.87,35.87,0,0,0-28.81-36.51c-1-.19-2-.24-2.91-.48-1.15-.29-1.51,0-1.5,1.26,0,6.8,0,13.6,0,20.4,0,5,0,10,0,15,0,3.65-1.48,5.12-5.14,5.12H13.14C5.24,217.88,0,212.6,0,204.66V13C0,5.42,5.34,0,12.9,0H53.41c3.38,0,4.83,1.48,4.83,4.9s0,3.51,3.54,3.51c9.36,0,18.72,0,28.09,0,1.28,0,1.81-.31,1.64-1.64a14.55,14.55,0,0,1,0-2.38C91.62,1.52,93,.11,95.94,0c.64,0,1.28,0,1.92,0H161c4.05,0,5.42,1.37,5.42,5.42,0,3,0,3,3,3,9.46,0,18.92,0,28.38,0,1.42,0,2.14-.25,1.86-1.84a10.57,10.57,0,0,1,0-1.78c0-3.27,1.51-4.81,4.8-4.83,5,0,10,0,15.07,0,8.48,0,16.95,0,25.43,0,4.92,0,8.87,2,11.4,6.38a27.86,27.86,0,0,1,1.54,4.27ZM232.9,150.84q0-20.18,0-40.35c0-1.23-.31-1.57-1.54-1.57q-31.71.06-63.42,0c-1.32,0-1.64.34-1.61,1.63.09,3.62.08,7.25,0,10.87a4,4,0,0,1-4.13,4.25,3.83,3.83,0,0,1-4.21-4.12q-.07-16.76,0-33.5c0-2.3,1.25-3.8,3.1-4.11,3.15-.53,5.2,1.15,5.24,4.38.05,3.47.08,7,0,10.42,0,1.42.23,1.91,1.8,1.9q31.41-.09,62.82,0c2.22,0,1.92.17,1.92-1.85q0-35.82,0-71.62c0-1.88,0-1.88-1.92-1.88q-13.38,0-26.75,0c-3.07,0-4.64-1.61-4.66-4.67a18.43,18.43,0,0,1,0-2.23c.14-1.16-.25-1.5-1.44-1.49-9.51,0-19,0-28.53,0-3.21,0-3.21,0-3.22,3.22,0,3.7-1.43,5.16-5.08,5.16-9,0-17.93,0-26.9,0-1.09,0-1.4.25-1.4,1.39.05,12.6,0,25.2,0,37.81q0,20.1,0,40.19c0,2.81-1.53,4.31-4.3,4.33-.54,0-1.08,0-1.63,0a34,34,0,0,0-18.22,5c-9.91,6.08-15.5,15-17.21,26.52-.29,1.94-.22,1.95,1.74,1.95,11.58,0,23.16.06,34.74,0a4.76,4.76,0,0,1,5,4.95c-.12,14.63,0,29.27-.08,43.91,0,1.08.21,1.43,1.36,1.42q11.16-.08,22.32,0c1,0,1.33-.3,1.33-1.34,0-5.65,0-11.31,0-17a27.86,27.86,0,0,1,.13-3.42,3.65,3.65,0,0,1,3.56-3.33,44.48,44.48,0,0,1,12.17,1c13.12,3.22,22.8,10.93,29.25,22.83a1.85,1.85,0,0,0,1.91,1.18q13.23-.08,26.46,0c1.2,0,1.43-.37,1.43-1.49Q232.87,171,232.9,150.84ZM25,109q0,41,0,82c0,1.19.14,1.7,1.56,1.7q48.41-.08,96.81,0c1.16,0,1.45-.32,1.45-1.48q-.06-19.35,0-38.7c0-1.28-.27-1.66-1.6-1.65-11.73.06-23.45,0-35.18,0-3.35,0-4.86-1.54-4.89-4.91a47.7,47.7,0,0,1,.79-9.16c3.54-19.43,20-34.58,39.34-36.12,1.39-.12,1.53-.57,1.53-1.75q0-35.94,0-71.9c0-1.55-.43-1.84-1.87-1.83-9,.07-17.93.05-26.9,0-2.89,0-4.37-1.42-4.53-4.31a15.27,15.27,0,0,1,0-2.53c.14-1.26-.35-1.56-1.56-1.55-9.41,0-18.82,0-28.23,0-3.48,0-3.48,0-3.48,3.56,0,3.28-1.52,4.81-4.78,4.82-9,0-18,0-27,0-1.08,0-1.46.19-1.46,1.42Q25,67.8,25,109Zm-16.68-.12h0v64.39q0,15.77,0,31.53c0,2.39,1,4.08,2.85,4.5a10.81,10.81,0,0,0,2.35.18H155.85a6.09,6.09,0,0,1,.74,0c1.06.15,1.51-.22,1.45-1.38-.1-1.63,0-3.27,0-4.91,0-2.43.18-2.12-2.17-2.12H21.62c-3.64,0-5-1.37-5-5V21.84c0-3.58,1.38-5,4.88-5,9,0,17.94,0,26.91,0,1.35,0,1.67-.4,1.58-1.68A43,43,0,0,1,50,10c.07-1.21-.25-1.6-1.52-1.6-11.73.05-23.45,0-35.18,0-3.62,0-5,1.39-5,5v95.34Zm241.22.09V13.66c0-3.86-1.32-5.21-5.1-5.21H211.32c-.78,0-1.57,0-2.36,0s-1.12.26-1.1,1.11c.06,1.79,0,3.58,0,5.36,0,1.94,0,1.94,1.9,1.94q13.37,0,26.75,0c1.48,0,2.88.19,3.83,1.46a6.09,6.09,0,0,1,.9,3.83q0,86.94,0,173.88c0,3.63-1.37,5-5,5-9.41,0-18.82,0-28.23,0-1.31,0-1.34.39-1,1.39a15.6,15.6,0,0,1,.83,5.54c-.06,1.27.38,1.55,1.58,1.54,11.72,0,23.45,0,35.17,0,3.54,0,4.94-1.42,4.94-4.95q0-23.6,0-47.18ZM129.05,16.86c9.21,0,18.42,0,27.63,0,1.13,0,1.42-.28,1.36-1.39A53.3,53.3,0,0,1,158,10c.06-1.18-.21-1.58-1.51-1.57-10.88.06-21.77,0-32.65,0-7.54,0-15.07,0-22.61,0-1.07,0-1.49.25-1.43,1.4a48.06,48.06,0,0,1,0,5.5c-.07,1.27.37,1.57,1.58,1.56C110.63,16.84,119.84,16.86,129.05,16.86Z"/></g></svg>