<svg xmlns="http://www.w3.org/2000/svg" viewBox="0 0 54.36 38.77"><defs><style>.cls-1{fill:#682426;}</style></defs><g id="Layer_2" data-name="Layer 2"><g id="Layer_1-2" data-name="Layer 1"><path class="cls-1" d="M51.31,28.14l-18-10.42,20-13.86a2.08,2.08,0,0,0,.83-2.35A2.16,2.16,0,0,0,52.09,0H2l-.2,0-.13,0A2.16,2.16,0,0,0,.22,1.19l-.08.2a.94.94,0,0,0-.07.22A1.89,1.89,0,0,0,0,2.12V36.65a2.37,2.37,0,0,0,.08.57l0,.09h0l0,.06a2.1,2.1,0,0,0,2,1.39H48.73a5.63,5.63,0,0,0,2.58-10.63ZM2.1,2.15l0,0h50c.06,0,.07,0,0,0L31.29,16.55h0L2.2,36.65H2.1Z"/></g></g></svg>